<?xml version="1.0" encoding="utf-8"?>
<!-- Generator: Adobe Illustrator 26.0.2, SVG Export Plug-In . SVG Version: 6.00 Build 0)  -->
<svg version="1.1" id="图层_1" xmlns="http://www.w3.org/2000/svg" xmlns:xlink="http://www.w3.org/1999/xlink" x="0px" y="0px"
	 viewBox="0 0 64 64" style="enable-background:new 0 0 64 64;" xml:space="preserve">
<style type="text/css">
	.st0{fill:none;stroke:#FFFFFF;stroke-width:4;stroke-miterlimit:10;}
	.st1{opacity:0.5;fill:none;stroke:#FFFFFF;stroke-width:4;stroke-linecap:round;stroke-miterlimit:10;enable-background:new    ;}
</style>
<g>
	<path class="st0" d="M21.3,29.5h-9.7c-3,0-5.4-2.4-5.4-5.4v-9.7c0-3,2.4-5.4,5.4-5.4h9.7c3,0,5.4,2.4,5.4,5.4v9.7
		C26.7,27.1,24.2,29.5,21.3,29.5z"/>
	<path class="st0" d="M41.8,28.6l-6.5-6.5c-2.1-2.1-2.1-5.5,0-7.7l6.5-6.5c2.1-2.1,5.5-2.1,7.7,0l6.5,6.5c2.1,2.1,2.1,5.5,0,7.7
		l-6.5,6.5C47.4,30.7,43.9,30.7,41.8,28.6z"/>
	<path class="st0" d="M21.3,57.9h-9.7c-3,0-5.4-2.4-5.4-5.4v-9.7c0-3,2.4-5.4,5.4-5.4h9.7c3,0,5.4,2.4,5.4,5.4v9.7
		C26.7,55.4,24.2,57.9,21.3,57.9z"/>
	<path class="st1" d="M43.5,57.9h-4.7c-3,0-5.4-2.4-5.4-5.4v-9.7c0-3,2.4-5.4,5.4-5.4h9.7c3,0,5.4,2.4,5.4,5.4v5.7"/>
</g>
</svg>
